<svg width="1555" height="983" viewBox="0 0 1555 983" fill="none" xmlns="http://www.w3.org/2000/svg">
<path d="M1321 42L1323.7 49.2991L1331 52L1323.7 54.7009L1321 62L1318.3 54.7009L1311 52L1318.3 49.2991L1321 42Z" fill="#D66E6E"/>
<path d="M803 379L805.701 386.299L813 389L805.701 391.701L803 399L800.299 391.701L793 389L800.299 386.299L803 379Z" fill="#D66E6E"/>
<path d="M272 0L274.701 7.29909L282 10L274.701 12.7009L272 20L269.299 12.7009L262 10L269.299 7.29909L272 0Z" fill="#D66E6E"/>
<path d="M108 443L110.701 450.299L118 453L110.701 455.701L108 463L105.299 455.701L98 453L105.299 450.299L108 443Z" fill="#D66E6E"/>
<path d="M1459 242L1461.7 249.299L1469 252L1461.7 254.701L1459 262L1456.3 254.701L1449 252L1456.3 249.299L1459 242Z" fill="#D66E6E"/>
<path d="M88 113L90.7009 120.299L98 123L90.7009 125.701L88 133L85.2991 125.701L78 123L85.2991 120.299L88 113Z" fill="#D66E6E"/>
<path d="M592.5 357L602.898 385.102L631 395.5L602.898 405.898L592.5 434L582.102 405.898L554 395.5L582.102 385.102L592.5 357Z" fill="#D66E6E"/>
<path d="M1123.5 62L1133.9 90.1015L1162 100.5L1133.9 110.898L1123.5 139L1113.1 110.898L1085 100.5L1113.1 90.1015L1123.5 62Z" fill="#D66E6E"/>
<path d="M1359.5 604L1369.9 632.102L1398 642.5L1369.9 652.898L1359.5 681L1349.1 652.898L1321 642.5L1349.1 632.102L1359.5 604Z" fill="#D66E6E"/>
<path d="M178.5 123L188.898 151.102L217 161.5L188.898 171.898L178.5 200L168.102 171.898L140 161.5L168.102 151.102L178.5 123Z" fill="#D66E6E"/>
<rect x="1177.24" y="282.025" width="174" height="274" rx="40" transform="rotate(14.2304 1177.24 282.025)" fill="#4E4DF4"/>
<rect x="1305.43" y="244.381" width="34" height="34" rx="17" transform="rotate(14.2304 1305.43 244.381)" fill="#4E4DF4"/>
<rect x="1313.11" y="266.963" width="8" height="68" rx="4" transform="rotate(14.2304 1313.11 266.963)" fill="#4E4DF4"/>
<mask id="mask0_277_27635" style="mask-type:alpha" maskUnits="userSpaceOnUse" x="866" y="128" width="625" height="762">
<path d="M1064.61 249.231C1072.49 263.237 1085.36 273.765 1100.64 278.721L1285.8 338.746C1292.63 340.961 1299.04 344.309 1304.76 348.651L1375.71 402.511L1408.56 425.232C1418.58 432.161 1430.56 435.682 1442.73 435.276L1478.26 434.088C1481.27 433.988 1484.01 435.813 1485.08 438.629V438.629C1486.47 442.312 1484.58 446.424 1480.87 447.751L1476.15 449.441C1467.43 452.563 1465.41 463.983 1472.54 469.9L1483.36 478.888C1489.28 483.812 1491.85 491.704 1489.96 499.173L1488.47 505.036C1484.2 521.876 1466.4 531.424 1450.01 525.667L1322.52 480.895C1287.05 468.435 1248.52 489.099 1239.28 525.546L1221.04 597.489C1219.6 603.141 1217.4 608.571 1214.5 613.628L1061.79 879.557C1057.88 886.368 1050.34 890.259 1042.52 889.505L982.268 883.691C976.7 883.154 971.823 879.733 969.423 874.681V874.681C966.041 867.564 968.377 859.044 974.915 854.647L996.505 840.126C999.314 838.236 1001.37 835.418 1002.31 832.166L1060.27 631.476C1064.23 617.765 1052.96 604.438 1038.78 606.056L993.672 611.205C984.863 612.21 977.767 618.896 976.239 627.63L956.338 741.403C954.729 750.599 946.972 757.459 937.648 757.931L880.593 760.819C874.626 761.121 869.184 757.421 867.27 751.76V751.76C865.35 746.079 867.454 739.815 872.414 736.444L887.564 726.146C891.108 723.737 893.053 719.583 892.632 715.318L878.506 572.078C875.524 541.841 894.214 513.674 923.233 504.671L1004.28 479.527C1009.92 477.778 1014.24 473.224 1015.69 467.503V467.503L1031.23 406.233C1035.87 387.925 1032.19 368.502 1021.17 353.162L988.291 307.388C980.325 296.299 976.115 282.952 976.275 269.3L977.595 156.773C977.768 141.967 989.491 129.881 1004.29 129.258L1015.44 128.787C1022.92 128.472 1029.49 133.713 1030.84 141.077L1034.25 159.555C1035.61 166.981 1045.49 168.679 1049.26 162.136L1050.67 159.698C1052.72 156.124 1057.67 155.599 1060.43 158.659V158.659C1062.15 160.559 1062.49 163.331 1061.28 165.588L1050.21 186.313C1045.37 195.373 1044.29 206.077 1047.12 215.95V215.95C1047.98 218.93 1049.19 221.834 1050.71 224.536L1064.61 249.231Z" fill="white"/>
</mask>
<g mask="url(#mask0_277_27635)">
<path d="M919.35 58.3631C931.405 25.3756 967.792 8.26642 1000.89 20.0245L1453.55 180.848C1482.84 191.257 1500.42 221.216 1495.22 251.868L1385.13 900.289C1378.53 939.113 1338.78 962.83 1301.48 950.189L733.525 757.679C699.49 746.143 681.623 708.852 693.958 675.098L919.35 58.3631Z" fill="white"/>
<rect x="810.102" y="21.1596" width="269" height="241" transform="rotate(-10.7005 810.102 21.1596)" fill="#00E2D2"/>
<rect x="1300.46" y="581.275" width="269" height="241" transform="rotate(-55.1559 1300.46 581.275)" fill="#00E2D2"/>
<rect x="929.624" y="692.677" width="318.062" height="228" transform="rotate(18.9571 929.624 692.677)" fill="#00E2D2"/>
<rect x="991.361" y="453.596" width="306" height="19" transform="rotate(14.2304 991.361 453.596)" fill="#4E4DF4"/>
<rect x="1115.03" y="389.016" width="85" height="110" rx="22" transform="rotate(14.2304 1115.03 389.016)" fill="#4E4DF4"/>
<rect x="804.625" y="638.457" width="220.707" height="228" transform="rotate(1.38535 804.625 638.457)" fill="#00E2D2"/>
<circle cx="1106.33" cy="309.434" r="6" transform="rotate(14.2304 1106.33 309.434)" fill="#4E4DF4"/>
<circle cx="1124.74" cy="314.104" r="6" transform="rotate(14.2304 1124.74 314.104)" fill="#4E4DF4"/>
</g>
<mask id="mask1_277_27635" style="mask-type:alpha" maskUnits="userSpaceOnUse" x="1115" y="157" width="175" height="175">
<circle cx="1202.35" cy="244.032" r="87" transform="rotate(14.2304 1202.35 244.032)" fill="white"/>
</mask>
<g mask="url(#mask1_277_27635)">
<circle cx="1202.35" cy="244.032" r="87" transform="rotate(14.2304 1202.35 244.032)" fill="white"/>
<circle cx="1194.02" cy="234.181" r="66.5" transform="rotate(14.2304 1194.02 234.181)" fill="#162034"/>
<circle cx="1248.7" cy="236.185" r="27" transform="rotate(14.2304 1248.7 236.185)" fill="white"/>
<path d="M1172.72 185.965C1163.89 189.842 1156.19 196.074 1150.58 204.08" stroke="#2F5AD3" stroke-width="10" stroke-linecap="round"/>
</g>
<circle cx="1148.99" cy="423.935" r="7" transform="rotate(14.2304 1148.99 423.935)" stroke="#162034" stroke-width="3"/>
<path d="M1143.66 502.02L1156.85 450.003C1159.57 439.297 1170.45 432.818 1181.15 435.534L1182.1 435.773" stroke="#162034" stroke-width="3"/>
<mask id="mask2_277_27635" style="mask-type:alpha" maskUnits="userSpaceOnUse" x="196" y="98" width="329" height="329">
<circle cx="360.5" cy="262.05" r="164.05" fill="black"/>
</mask>
<g mask="url(#mask2_277_27635)">
<path d="M547.401 151.205C547.401 206.116 532.956 216.689 442.354 216.689C351.752 216.689 339.695 151.205 201.907 151.205C201.907 60.6032 269.898 98 360.5 98C451.102 98 547.401 119.828 547.401 151.205Z" fill="#4E4DF4"/>
<path d="M165.755 384.49C165.755 329.579 180.199 319.007 270.801 319.007C361.403 319.007 373.46 384.49 511.248 384.49C511.248 475.092 443.258 437.695 352.656 437.695C262.054 437.695 165.755 415.868 165.755 384.49Z" fill="white"/>
</g>
<ellipse cx="360.5" cy="262.05" rx="360.5" ry="83.5596" fill="#00E2D2"/>
<path d="M670.559 252.159C670.559 256.214 668.631 260.32 664.65 264.453C660.662 268.591 654.705 272.656 646.903 276.573C631.303 284.406 608.632 291.502 580.494 297.478C524.243 309.424 446.462 316.825 360.5 316.825C274.538 316.825 196.757 309.424 140.506 297.478C112.368 291.502 89.6973 284.406 74.0976 276.573C66.2952 272.656 60.3382 268.591 56.3506 264.453C52.3687 260.32 50.4406 256.214 50.4406 252.159C50.4406 248.104 52.3687 243.998 56.3506 239.865C60.3382 235.727 66.2952 231.662 74.0976 227.745C89.6973 219.912 112.368 212.816 140.506 206.84C196.757 194.894 274.538 187.493 360.5 187.493C446.462 187.493 524.243 194.894 580.494 206.84C608.632 212.816 631.303 219.912 646.903 227.745C654.705 231.662 660.662 235.727 664.65 239.865C668.631 243.998 670.559 248.104 670.559 252.159Z" fill="#00E2D2" stroke="black" stroke-width="3"/>
<path d="M617.749 246.702C617.749 249.971 616.125 253.271 612.797 256.578C609.467 259.888 604.503 263.128 598.021 266.245C585.061 272.477 566.244 278.116 542.91 282.862C496.26 292.349 431.767 298.225 360.5 298.225C289.233 298.225 224.74 292.349 178.09 282.862C154.756 278.116 135.939 272.477 122.979 266.245C116.497 263.128 111.533 259.888 108.203 256.578C104.875 253.271 103.251 249.971 103.251 246.702C103.251 243.433 104.875 240.133 108.203 236.826C111.533 233.516 116.497 230.276 122.979 227.159C135.939 220.927 154.756 215.288 178.09 210.542C224.74 201.055 289.233 195.179 360.5 195.179C431.767 195.179 496.26 201.055 542.91 210.542C566.244 215.288 585.061 220.927 598.021 227.159C604.503 230.276 609.467 233.516 612.797 236.826C616.125 240.133 617.749 243.433 617.749 246.702Z" fill="black" stroke="black" stroke-width="2"/>
<mask id="mask3_277_27635" style="mask-type:alpha" maskUnits="userSpaceOnUse" x="196" y="98" width="329" height="329">
<circle cx="360.5" cy="262.194" r="164.05" fill="black"/>
</mask>
<g mask="url(#mask3_277_27635)">
<rect width="345.493" height="126.336" transform="translate(201.907 90.4967)" fill="black"/>
<path d="M547.401 151.349C547.401 206.26 532.956 216.833 442.354 216.833C351.752 216.833 339.695 151.349 201.907 151.349C201.907 60.7473 269.898 98.1441 360.5 98.1441C451.102 98.1441 547.401 119.972 547.401 151.349Z" fill="#4E4DF4"/>
</g>
</svg>
