<svg width="837" height="562" viewBox="0 0 837 562" fill="none" xmlns="http://www.w3.org/2000/svg">
<circle cx="462.217" cy="413.452" r="135" transform="rotate(5.81995 462.217 413.452)" fill="#4E4DF4"/>
<circle cx="659.872" cy="176.578" r="161.074" transform="rotate(5.81995 659.872 176.578)" fill="#4E4DF4"/>
<circle cx="257.928" cy="273.794" r="219.5" transform="rotate(5.81995 257.928 273.794)" fill="#4E4DF4"/>
<path fill-rule="evenodd" clip-rule="evenodd" d="M452.906 374.611C491.024 300.892 531.793 291.685 585.89 319.657L528.68 83.1232C493.346 132.725 452.875 143.167 385.281 95.0165L452.906 374.611Z" fill="#4E4DF4"/>
<path fill-rule="evenodd" clip-rule="evenodd" d="M273.873 492.714C340.537 487.859 346.239 493.85 378.485 519.348L530.495 296.991C495.031 276.2 487.378 273.062 467.704 209.183L273.873 492.714Z" fill="#4E4DF4"/>
<path fill-rule="evenodd" clip-rule="evenodd" d="M500.205 197.83C507.313 251.23 489.161 273.676 444.405 279.633L597.064 407.015C594.91 361.915 613.743 340.038 667.553 337.469L500.205 197.83Z" fill="#4E4DF4"/>
<circle cx="286.439" cy="272.205" r="158.271" transform="rotate(7.43751 286.439 272.205)" fill="#3534BC"/>
<circle cx="658.71" cy="146.429" r="120.871" transform="rotate(7.43751 658.71 146.429)" fill="#3534BC"/>
<circle cx="473.605" cy="408.696" r="120.871" transform="rotate(7.43751 473.605 408.696)" fill="#3534BC"/>
<path fill-rule="evenodd" clip-rule="evenodd" d="M592.717 388.152C579.963 314.207 605.309 278.296 679.254 265.542L539.597 166.974C552.351 240.918 527.005 276.83 453.06 289.583L592.717 388.152Z" fill="#3534BC"/>
<path fill-rule="evenodd" clip-rule="evenodd" d="M505.883 292.214C464.407 280.721 454.426 274.61 436.285 221.255L283.727 430.453C340.074 431.418 348.943 439.054 372.563 475.031L505.883 292.214Z" fill="#3534BC"/>
<path fill-rule="evenodd" clip-rule="evenodd" d="M553.057 87.7142C511.984 161.621 460.096 187.643 363.322 133.862L431.471 335.571C475.798 234.118 532.836 223.338 610.317 257.19L553.057 87.7142Z" fill="#3534BC"/>
<circle cx="331.31" cy="269.037" r="114.956" transform="rotate(11.53 331.31 269.037)" fill="#1F1F73"/>
<circle cx="436.489" cy="369.451" r="114.956" transform="rotate(11.53 436.489 369.451)" fill="#1F1F73"/>
<circle cx="609.43" cy="186.765" r="76.8188" transform="rotate(11.53 609.43 186.765)" fill="#1F1F73"/>
<circle cx="495.282" cy="195.729" r="36.5025" transform="rotate(11.53 495.282 195.729)" fill="#1F1F73"/>
<path fill-rule="evenodd" clip-rule="evenodd" d="M525.87 297.161C490.814 253.817 504.473 235.242 518.237 224.111L459.809 204.337C463.983 221.539 463.555 244.592 409.381 257.737L525.87 297.161Z" fill="#1F1F73"/>
<path fill-rule="evenodd" clip-rule="evenodd" d="M550.83 357.575C543.678 288.715 571.35 267.952 617.366 263.173L532.702 183.026C530.45 229.234 511.234 258.002 442.085 254.632L550.83 357.575Z" fill="#1F1F73"/>
<path fill-rule="evenodd" clip-rule="evenodd" d="M483.347 264.479C452.196 250.574 449.332 247.839 433.998 217.366L284.452 374.01C315.603 387.915 318.467 390.65 333.801 421.123L483.347 264.479Z" fill="#1F1F73"/>
<path fill-rule="evenodd" clip-rule="evenodd" d="M518.344 224.023C526.707 217.207 535.539 217.698 549.884 235.298L543.038 148.121C531.616 167.745 522.969 169.608 513.644 164.181L518.344 224.023Z" fill="#1F1F73"/>
<path fill-rule="evenodd" clip-rule="evenodd" d="M464.97 175.391C455.62 189.326 439.248 203.027 395.361 173.58L445.157 284.961C452.478 232.62 473.605 229.555 490.226 231.88L464.97 175.391Z" fill="#1F1F73"/>
<path fill-rule="evenodd" clip-rule="evenodd" d="M544.497 145.718C511.535 197.86 470.763 221.194 392.734 171.869L435.712 317.152C474.349 233.315 521.253 230.712 577.277 256.531L544.497 145.718Z" fill="#1F1F73"/>
<path d="M150.671 389.964L153.332 397.329L160.929 400.212L153.203 402.729L150.193 409.958L147.532 402.594L139.935 399.711L147.661 397.193L150.671 389.964Z" fill="white"/>
<path d="M448.057 461.085L453.985 478.749L470.978 485.639L453.675 491.71L446.911 509.071L440.984 491.407L423.991 484.517L441.294 478.446L448.057 461.085Z" fill="white"/>
<path d="M306.285 339.106L309.121 346.77L316.785 349.606L309.121 352.442L306.285 360.106L303.449 352.442L295.785 349.606L303.449 346.77L306.285 339.106Z" fill="white"/>
<path d="M194.285 233.106L197.121 240.77L204.785 243.606L197.121 246.442L194.285 254.106L191.449 246.442L183.785 243.606L191.449 240.77L194.285 233.106Z" fill="white"/>
<path d="M638.285 58.106L641.121 65.77L648.785 68.606L641.121 71.4419L638.285 79.106L635.449 71.4419L627.785 68.606L635.449 65.77L638.285 58.106Z" fill="white"/>
<path d="M592.285 167.106L595.121 174.77L602.785 177.606L595.121 180.442L592.285 188.106L589.449 180.442L581.785 177.606L589.449 174.77L592.285 167.106Z" fill="white"/>
<path d="M749.285 160.106L752.121 167.77L759.785 170.606L752.121 173.442L749.285 181.106L746.449 173.442L738.785 170.606L746.449 167.77L749.285 160.106Z" fill="white"/>
<path d="M558.285 396.106L561.121 403.77L568.785 406.606L561.121 409.442L558.285 417.106L555.449 409.442L547.785 406.606L555.449 403.77L558.285 396.106Z" fill="white"/>
<path d="M269.285 127.106L272.121 134.77L279.785 137.606L272.121 140.442L269.285 148.106L266.449 140.442L258.785 137.606L266.449 134.77L269.285 127.106Z" fill="white"/>
<path d="M447.785 370.106L450.486 377.77L457.785 380.606L450.486 383.442L447.785 391.106L445.084 383.442L437.785 380.606L445.084 377.77L447.785 370.106Z" fill="#D66E6E"/>
<path d="M360.785 193.106L363.486 200.77L370.785 203.606L363.486 206.442L360.785 214.106L358.084 206.442L350.785 203.606L358.084 200.77L360.785 193.106Z" fill="#D66E6E"/>
<path d="M221.785 319.106L224.486 326.77L231.785 329.606L224.486 332.442L221.785 340.106L219.084 332.442L211.785 329.606L219.084 326.77L221.785 319.106Z" fill="#D66E6E"/>
<circle cx="151.008" cy="327.791" r="14.9976" transform="rotate(-99.1963 151.008 327.791)" fill="#FFA572"/>
<path d="M3.19826 351.721L147.895 313.101L152.689 342.711L3.19826 351.721Z" fill="white"/>
<circle cx="151.108" cy="327.652" r="9.94285" transform="rotate(-99.1963 151.108 327.652)" fill="#D66E6E"/>
<circle cx="595.971" cy="387.292" r="14.9976" transform="rotate(132.271 595.971 387.292)" fill="#FFA572"/>
<path d="M706.77 488.009L586.42 398.878L606.596 376.682L706.77 488.009Z" fill="white"/>
<circle cx="595.8" cy="387.3" r="9.94285" transform="rotate(132.271 595.8 387.3)" fill="#D66E6E"/>
<circle cx="220.957" cy="183.962" r="14.9976" transform="rotate(-60 220.957 183.962)" fill="#9AFFF8"/>
<path d="M91.2843 109.094L227.828 170.61L212.831 196.587L91.2843 109.094Z" fill="#CFFFFC"/>
<circle cx="221.123" cy="183.917" r="9.94285" transform="rotate(-60 221.123 183.917)" fill="#00E2D2"/>
</svg>
