<svg width="1728" height="445" viewBox="0 0 1728 445" fill="none" xmlns="http://www.w3.org/2000/svg">
<mask id="mask0_277_27635" style="mask-type:alpha" maskUnits="userSpaceOnUse" x="0" y="0" width="1728" height="445">
<rect x="0.5" y="0.500008" width="1727" height="444" fill="#D9D9D9" stroke="#FF2626"/>
</mask>
<g mask="url(#mask0_277_27635)">
<path d="M1477 61L1479.7 68.2991L1487 71L1479.7 73.7009L1477 81L1474.3 73.7009L1467 71L1474.3 68.2991L1477 61Z" fill="#4E4DF4"/>
<path d="M1233 53L1235.7 60.2991L1243 63L1235.7 65.7009L1233 73L1230.3 65.7009L1223 63L1230.3 60.2991L1233 53Z" fill="#4E4DF4"/>
<path d="M1041 319L1043.7 326.299L1051 329L1043.7 331.701L1041 339L1038.3 331.701L1031 329L1038.3 326.299L1041 319Z" fill="#D66E6E"/>
<path d="M1033 52.9998L1035.7 60.2988L1043 62.9998L1035.7 65.7007L1033 72.9998L1030.3 65.7007L1023 62.9998L1030.3 60.2988L1033 52.9998Z" fill="white"/>
<path d="M842 213L844.701 220.299L852 223L844.701 225.701L842 233L839.299 225.701L832 223L839.299 220.299L842 213Z" fill="#00E2D2"/>
<path d="M625 266L627.701 273.299L635 276L627.701 278.701L625 286L622.299 278.701L615 276L622.299 273.299L625 266Z" fill="#4E4DF4"/>
<path d="M578 15L580.701 22.2991L588 25L580.701 27.7009L578 35L575.299 27.7009L568 25L575.299 22.2991L578 15Z" fill="#D66E6E"/>
<path d="M251 381L253.701 388.299L261 391L253.701 393.701L251 401L248.299 393.701L241 391L248.299 388.299L251 381Z" fill="#D66E6E"/>
<path d="M1602 180L1604.7 187.299L1612 190L1604.7 192.701L1602 200L1599.3 192.701L1592 190L1599.3 187.299L1602 180Z" fill="#D66E6E"/>
<path d="M1439 274L1441.7 281.299L1449 284L1441.7 286.701L1439 294L1436.3 286.701L1429 284L1436.3 281.299L1439 274Z" fill="#D66E6E"/>
<path d="M192 86L194.701 93.2991L202 96L194.701 98.7009L192 106L189.299 98.7009L182 96L189.299 93.2991L192 86Z" fill="#D66E6E"/>
<path d="M735.498 295L745.896 323.101L773.998 333.5L745.896 343.898L735.498 372L725.099 343.898L696.998 333.5L725.099 323.101L735.498 295Z" fill="#D66E6E"/>
<rect x="1250.51" y="232.504" width="145.142" height="228.557" rx="40" transform="rotate(14.2304 1250.51 232.504)" fill="#4E4DF4"/>
<rect x="1357.44" y="201.103" width="28.3611" height="28.3611" rx="14.1805" transform="rotate(14.2304 1357.44 201.103)" fill="#4E4DF4"/>
<rect x="1363.85" y="219.94" width="6.6732" height="56.7222" rx="3.3366" transform="rotate(14.2304 1363.85 219.94)" fill="#4E4DF4"/>
<mask id="mask1_277_27635" style="mask-type:alpha" maskUnits="userSpaceOnUse" x="991" y="104" width="521" height="636">
<path d="M1154.53 201.536C1162.41 215.543 1175.28 226.07 1190.56 231.026L1339.36 279.263C1346.19 281.478 1352.6 284.826 1358.32 289.168L1416.07 333.007L1443.47 351.96C1451.83 357.74 1461.82 360.677 1471.97 360.338L1501.61 359.347C1504.12 359.264 1506.41 360.786 1507.3 363.135V363.135C1508.46 366.207 1506.88 369.637 1503.79 370.744L1499.85 372.154C1492.58 374.758 1490.89 384.284 1496.84 389.22L1505.86 396.717C1510.8 400.824 1512.95 407.408 1511.37 413.638L1510.13 418.529C1506.56 432.576 1491.72 440.54 1478.04 435.738L1382.66 402.237C1347.18 389.778 1308.66 410.441 1299.41 446.889L1287.4 494.235C1285.97 499.888 1283.77 505.317 1280.87 510.374L1155.28 729.08C1151.36 735.89 1143.83 739.782 1136.01 739.027L1087.88 734.384C1083.23 733.936 1079.17 731.082 1077.16 726.867V726.867C1074.34 720.931 1076.29 713.824 1081.74 710.156L1099.75 698.043C1102.1 696.467 1103.81 694.117 1104.59 691.404L1151.56 528.779C1155.52 515.068 1144.26 501.74 1130.08 503.359L1099.85 506.808C1091.05 507.813 1083.95 514.499 1082.42 523.233L1066.7 613.086C1065.1 622.283 1057.34 629.143 1048.01 629.615L1003.07 631.89C998.088 632.142 993.549 629.055 991.953 624.333V624.333C990.351 619.594 992.106 614.369 996.243 611.557L1008.88 602.967C1011.84 600.958 1013.46 597.493 1013.11 593.935L1002.17 483.066C999.193 452.829 1017.88 424.662 1046.9 415.659L1106.24 397.25C1110.94 395.791 1114.55 391.992 1115.76 387.22V387.22L1127.5 340.901C1132.15 322.593 1128.47 303.17 1117.45 287.83L1094.94 256.492C1086.97 245.402 1082.76 232.056 1082.92 218.403L1083.98 128.025C1084.12 115.674 1093.9 105.593 1106.24 105.073L1115.55 104.681C1121.79 104.418 1127.27 108.79 1128.4 114.932L1131.24 130.346C1132.38 136.54 1140.62 137.956 1143.76 132.498L1144.93 130.465C1146.65 127.484 1150.77 127.045 1153.08 129.598V129.598C1154.51 131.183 1154.79 133.495 1153.79 135.378L1144.55 152.665C1140.52 160.223 1139.61 169.152 1141.98 177.387V177.387C1142.69 179.873 1143.7 182.296 1144.97 184.55L1154.53 201.536Z" fill="white"/>
</mask>
<g mask="url(#mask1_277_27635)">
<path d="M1031.78 55.8164C1043.84 22.8289 1080.23 5.71984 1113.32 17.4779L1472.59 145.122C1501.89 155.53 1519.47 185.489 1514.26 216.141L1426 735.957C1419.41 774.78 1379.66 798.498 1342.36 785.857L890.682 632.759C856.646 621.223 838.779 583.932 851.115 550.178L1031.78 55.8164Z" fill="white"/>
<rect x="944.265" y="14.903" width="224.386" height="201.03" transform="rotate(-10.7005 944.265 14.903)" fill="#00E2D2"/>
<rect x="1353.3" y="482.123" width="224.386" height="201.03" transform="rotate(-55.1559 1353.3 482.123)" fill="#00E2D2"/>
<rect x="1095.46" y="375.62" width="255.25" height="15.8488" transform="rotate(14.2304 1095.46 375.62)" fill="#4E4DF4"/>
<rect x="1198.62" y="321.75" width="70.9027" height="91.7564" rx="22" transform="rotate(14.2304 1198.62 321.75)" fill="#4E4DF4"/>
<circle cx="1191.36" cy="255.367" r="5.0049" transform="rotate(14.2304 1191.36 255.367)" fill="#4E4DF4"/>
<circle cx="1206.72" cy="259.263" r="5.0049" transform="rotate(14.2304 1206.72 259.263)" fill="#4E4DF4"/>
</g>
<mask id="mask2_277_27635" style="mask-type:alpha" maskUnits="userSpaceOnUse" x="1198" y="128" width="147" height="146">
<circle cx="1271.46" cy="200.812" r="72.571" transform="rotate(14.2304 1271.46 200.812)" fill="white"/>
</mask>
<g mask="url(#mask2_277_27635)">
<circle cx="1271.46" cy="200.812" r="72.571" transform="rotate(14.2304 1271.46 200.812)" fill="white"/>
<circle cx="1264.51" cy="192.595" r="55.4709" transform="rotate(14.2304 1264.51 192.595)" fill="#162034"/>
<circle cx="1310.12" cy="194.267" r="22.522" transform="rotate(14.2304 1310.12 194.267)" fill="white"/>
<path d="M1246.74 152.375C1239.38 155.609 1232.95 160.808 1228.28 167.486" stroke="#2F5AD3" stroke-width="10" stroke-linecap="round"/>
</g>
<circle cx="1226.95" cy="350.878" r="5.59027" transform="rotate(14.2304 1226.95 350.878)" stroke="#162034" stroke-width="3"/>
<path d="M1222.5 416.013L1233.31 373.409C1235.68 364.044 1245.2 358.377 1254.56 360.752V360.752" stroke="#162034" stroke-width="3"/>
<mask id="mask3_277_27635" style="mask-type:alpha" maskUnits="userSpaceOnUse" x="263" y="21" width="329" height="329">
<circle cx="427.869" cy="185.57" r="164.05" transform="rotate(-18.4229 427.869 185.57)" fill="black"/>
</mask>
<g mask="url(#mask3_277_27635)">
<path d="M570.161 21.3409C587.514 73.4373 577.151 88.0331 491.193 116.666C405.234 145.299 373.1 86.9817 242.374 130.527C213.741 44.568 290.066 58.5612 376.024 29.9283C461.983 1.29546 560.244 -8.42849 570.161 21.3409Z" fill="#4E4DF4"/>
<path d="M281.799 363.281C264.446 311.184 274.808 296.589 360.767 267.956C446.726 239.323 478.859 297.64 609.586 254.095C638.219 340.054 561.894 326.06 475.935 354.693C389.977 383.326 291.715 393.05 281.799 363.281Z" fill="white"/>
</g>
<ellipse cx="427.869" cy="185.57" rx="360.5" ry="83.5596" transform="rotate(-18.4229 427.869 185.57)" fill="#00E2D2"/>
<path d="M718.912 78.1989C720.193 82.0462 719.662 86.5514 717.19 91.7304C714.714 96.917 710.347 102.656 704.183 108.838C691.858 121.199 672.592 135.097 647.784 149.658C598.191 178.769 526.736 210.371 445.179 237.538C363.622 264.705 287.489 282.264 230.346 288.707C201.761 291.93 178.01 292.362 160.734 289.861C152.094 288.61 145.158 286.637 140.066 283.97C134.983 281.308 131.856 278.022 130.574 274.174C129.293 270.327 129.824 265.822 132.296 260.643C134.771 255.456 139.139 249.718 145.303 243.535C157.628 231.174 176.894 217.277 201.701 202.715C251.295 173.604 322.75 142.002 404.307 114.835C485.864 87.6686 561.997 70.1091 619.14 63.6659C647.725 60.4429 671.476 60.0111 688.752 62.5123C697.392 63.7633 704.328 65.7367 709.419 68.4028C714.503 71.0651 717.63 74.3517 718.912 78.1989Z" fill="#00E2D2" stroke="black" stroke-width="3"/>
<path d="M667.083 89.7112C668.116 92.8122 667.618 96.4565 665.507 100.646C663.393 104.838 659.708 109.482 654.543 114.487C644.216 124.495 628.146 135.792 607.508 147.669C566.246 171.413 506.916 197.369 439.301 219.892C371.686 242.414 308.642 257.221 261.384 262.963C237.747 265.834 218.111 266.431 203.846 264.614C196.711 263.706 190.978 262.2 186.772 260.112C182.57 258.026 179.986 255.408 178.953 252.307C177.92 249.206 178.418 245.562 180.53 241.373C182.643 237.18 186.329 232.537 191.494 227.531C201.82 217.523 217.891 206.226 238.529 194.35C279.79 170.605 339.121 144.649 406.736 122.127C474.35 99.6042 537.394 84.7973 584.653 79.056C608.29 76.1844 627.925 75.5875 642.19 77.4042C649.325 78.3129 655.059 79.8186 659.264 81.9062C663.467 83.9924 666.05 86.6102 667.083 89.7112Z" fill="black" stroke="black" stroke-width="2"/>
<mask id="mask4_277_27635" style="mask-type:alpha" maskUnits="userSpaceOnUse" x="263" y="21" width="330" height="329">
<circle cx="427.914" cy="185.707" r="164.05" transform="rotate(-18.4229 427.914 185.707)" fill="black"/>
</mask>
<g mask="url(#mask4_277_27635)">
<rect width="345.493" height="126.336" transform="translate(223.188 72.9294) rotate(-18.4229)" fill="black"/>
<path d="M570.206 21.4776C587.559 73.574 577.197 88.1698 491.238 116.803C405.279 145.436 373.146 87.1185 242.419 130.663C213.787 44.7047 290.111 58.698 376.07 30.0651C462.029 1.43221 560.29 -8.29175 570.206 21.4776Z" fill="#4E4DF4"/>
</g>
<path d="M299.5 247L309.898 275.102L338 285.5L309.898 295.898L299.5 324L289.102 295.898L261 285.5L289.102 275.102L299.5 247Z" fill="white"/>
<path d="M663 186L665.701 193.299L673 196L665.701 198.701L663 206L660.299 198.701L653 196L660.299 193.299L663 186Z" fill="white"/>
</g>
</svg>
