<svg width="1245" height="1418" viewBox="0 0 1245 1418" fill="none" xmlns="http://www.w3.org/2000/svg">
<path d="M434.89 650.077C444.502 612.978 470.076 582.053 504.711 565.647L603.813 518.705C798.325 426.568 1023.1 565.887 1027.13 781.079L1028.57 858.276C1030.1 940.284 978.795 1014 901.359 1041.05L880.851 1048.21C803.278 1075.3 717.598 1041.12 679.965 968.081C649.725 909.388 657.425 838.313 699.533 787.457L815.111 647.866C817.816 644.598 818.236 640.003 816.166 636.3C812.868 630.398 804.867 629.234 800.025 633.953L656.653 773.648C636.343 793.438 610.217 806.185 582.12 810.013L577.527 810.639C486.418 823.054 411.826 739.089 434.89 650.077Z" fill="#4E4DF4"/>
<path d="M492.574 679.193L496.685 690.304L507.796 694.415L496.685 698.527L492.574 709.638L488.462 698.527L477.351 694.415L488.462 690.304L492.574 679.193Z" fill="#00E2D2"/>
<path d="M932.981 774.723L942.338 800.011L967.625 809.368L942.338 818.725L932.981 844.012L923.624 818.725L898.336 809.368L923.624 800.011L932.981 774.723Z" fill="#00E2D2"/>
<path d="M836.919 904.905L841.03 916.016L852.141 920.128L841.03 924.239L836.919 935.35L832.807 924.239L821.696 920.128L832.807 916.016L836.919 904.905Z" fill="#00E2D2"/>
<path d="M723.541 589.954L727.652 601.066L738.763 605.177L727.652 609.289L723.541 620.4L719.429 609.289L708.318 605.177L719.429 601.066L723.541 589.954Z" fill="#00E2D2"/>
<path d="M932.455 636.146L936.567 647.257L947.678 651.369L936.567 655.48L932.455 666.592L928.344 655.48L917.233 651.369L928.344 647.257L932.455 636.146Z" fill="#D66E6E"/>
<path d="M599.659 560.559L603.771 571.67L614.882 575.782L603.771 579.893L599.659 591.004L595.548 579.893L584.437 575.782L595.548 571.67L599.659 560.559Z" fill="#D66E6E"/>
<rect x="674.792" y="740.921" width="56.4511" height="27.828" transform="rotate(41.5102 674.792 740.921)" fill="#131371"/>
<path d="M795.796 617.626C811.612 614.228 826.191 627.131 824.741 643.243L810.934 796.557C809.169 816.157 785.862 825.419 771.125 812.376L634.431 691.397C619.694 678.354 626.055 654.094 645.296 649.96L795.796 617.626Z" fill="#131371"/>
<path d="M766.94 617.607C776.232 607.109 788.714 599.952 802.469 597.236L817.926 594.184C833.469 591.115 847.668 603.682 846.511 619.483L845.36 635.196C844.336 649.179 838.748 662.438 829.456 672.937L718.296 798.535L655.78 743.206L766.94 617.607Z" fill="white"/>
<rect x="799.261" y="620.679" width="29.4182" height="69.1725" rx="14.7091" transform="rotate(41.5102 799.261 620.679)" fill="#131371"/>
<line x1="767.102" y1="617.426" x2="829.618" y2="672.755" stroke="#131371" stroke-width="2"/>
<path d="M730.87 658.363L742.109 668.31C748.726 674.166 749.343 684.278 743.486 690.895L730.706 705.335C724.85 711.952 714.738 712.569 708.121 706.713L696.882 696.766" stroke="#131371" stroke-width="2"/>
<path d="M789.4 717.597L780.263 709.511C771.992 702.19 759.352 702.961 752.031 711.232L727.691 738.734C720.371 747.006 707.731 747.776 699.46 740.456L676.331 719.986" stroke="#131371" stroke-width="2"/>
<circle cx="840.593" cy="525.915" r="5.24916" fill="#9B9AFF"/>
<circle cx="454.255" cy="641.397" r="5.24916" fill="#9B9AFF"/>
<circle cx="586.534" cy="742.181" r="5.24916" fill="#9B9AFF"/>
<circle cx="549.789" cy="576.307" r="5.24916" fill="#9B9AFF"/>
<circle cx="747.158" cy="841.915" r="5.24916" fill="#9B9AFF"/>
<circle cx="928.779" cy="700.188" r="5.24916" fill="#9B9AFF"/>
<circle cx="949.776" cy="911.204" r="5.24916" fill="#9B9AFF"/>
<circle cx="845.842" cy="956.347" r="5.24916" fill="#9B9AFF"/>
<circle cx="907.783" cy="770.526" r="5.24916" fill="#9B9AFF"/>
<circle cx="549.789" cy="667.643" r="5.24916" fill="#9B9AFF"/>
</svg>
